<!-- Generated by IcoMoon.io -->
<svg version="1.1" xmlns="http://www.w3.org/2000/svg" width="42" height="42" viewBox="0 0 42 42">
<title>edit</title>
<path d="M20.813 27.75l2.719-2.719-3.562-3.562-2.719 2.719v1.313h2.25v2.25h1.313zM31.125 10.875c-0.211-0.211-0.562-0.187-0.773 0.023l-8.203 8.203c-0.211 0.211-0.234 0.562-0.023 0.773s0.562 0.187 0.773-0.023l8.203-8.203c0.211-0.211 0.234-0.562 0.023-0.773zM33 24.797v4.453c0 3.727-3.023 6.75-6.75 6.75h-19.5c-3.727 0-6.75-3.023-6.75-6.75v-19.5c0-3.727 3.023-6.75 6.75-6.75h19.5c0.937 0 1.875 0.187 2.742 0.586 0.211 0.094 0.375 0.305 0.422 0.539 0.047 0.258-0.023 0.492-0.211 0.68l-1.148 1.148c-0.211 0.211-0.492 0.281-0.75 0.187-0.352-0.094-0.703-0.141-1.055-0.141h-19.5c-2.063 0-3.75 1.688-3.75 3.75v19.5c0 2.063 1.688 3.75 3.75 3.75h19.5c2.063 0 3.75-1.688 3.75-3.75v-2.953c0-0.187 0.070-0.375 0.211-0.516l1.5-1.5c0.234-0.234 0.539-0.281 0.82-0.164s0.469 0.375 0.469 0.68zM30.75 7.5l6.75 6.75-15.75 15.75h-6.75v-6.75zM41.156 10.594l-2.156 2.156-6.75-6.75 2.156-2.156c0.867-0.867 2.32-0.867 3.187 0l3.562 3.562c0.867 0.867 0.867 2.32 0 3.187z"></path>
</svg>
