<!-- Generated by IcoMoon.io -->
<svg version="1.1" xmlns="http://www.w3.org/2000/svg" width="38" height="42" viewBox="0 0 38 42">
<title>thumbs-down</title>
<path d="M6 13.5c0 0.82-0.68 1.5-1.5 1.5-0.844 0-1.5-0.68-1.5-1.5 0-0.844 0.656-1.5 1.5-1.5 0.82 0 1.5 0.656 1.5 1.5zM9.75 25.5v-15c0-0.82-0.68-1.5-1.5-1.5h-6.75c-0.82 0-1.5 0.68-1.5 1.5v15c0 0.82 0.68 1.5 1.5 1.5h6.75c0.82 0 1.5-0.68 1.5-1.5zM36.211 22.008c0.797 0.891 1.289 2.25 1.289 3.492-0.023 2.438-2.063 4.5-4.5 4.5h-6.492c0.187 0.75 0.422 0.984 0.68 1.5 0.609 1.219 1.313 2.578 1.313 4.5 0 1.805 0 6-5.25 6-0.398 0-0.773-0.164-1.055-0.445-1.008-0.984-1.289-2.438-1.547-3.82-0.281-1.359-0.539-2.766-1.453-3.68-0.727-0.727-1.523-1.734-2.367-2.812-1.031-1.359-3.281-4.148-4.148-4.219-0.773-0.070-1.43-0.727-1.43-1.5v-15.023c0-0.82 0.703-1.477 1.5-1.5 0.82-0.023 2.227-0.516 3.703-1.031 2.531-0.867 5.695-1.969 9.047-1.969h3.023c2.063 0.023 3.609 0.633 4.617 1.828 0.891 1.055 1.289 2.484 1.148 4.242 0.586 0.562 1.031 1.336 1.266 2.203 0.258 0.937 0.258 1.875 0 2.742 0.703 0.937 1.055 2.039 1.008 3.211 0 0.328-0.094 1.031-0.352 1.781z"></path>
</svg>
