<!-- Generated by IcoMoon.io -->
<svg version="1.1" xmlns="http://www.w3.org/2000/svg" width="38" height="42" viewBox="0 0 38 42">
<title>thumbs-up</title>
<path d="M6 31.5c0-0.82-0.68-1.5-1.5-1.5-0.844 0-1.5 0.68-1.5 1.5 0 0.844 0.656 1.5 1.5 1.5 0.82 0 1.5-0.656 1.5-1.5zM9.75 19.5v15c0 0.82-0.68 1.5-1.5 1.5h-6.75c-0.82 0-1.5-0.68-1.5-1.5v-15c0-0.82 0.68-1.5 1.5-1.5h6.75c0.82 0 1.5 0.68 1.5 1.5zM37.5 19.5c0 1.242-0.492 2.578-1.289 3.492 0.258 0.75 0.352 1.453 0.352 1.781 0.047 1.172-0.305 2.273-1.008 3.211 0.258 0.867 0.258 1.805 0 2.742-0.234 0.867-0.68 1.641-1.266 2.203 0.141 1.758-0.258 3.187-1.148 4.242-1.008 1.195-2.555 1.805-4.617 1.828h-3.023c-3.352 0-6.516-1.102-9.047-1.969-1.477-0.516-2.883-1.008-3.703-1.031-0.797-0.023-1.5-0.68-1.5-1.5v-15.023c0-0.773 0.656-1.43 1.43-1.5 0.867-0.070 3.117-2.859 4.148-4.219 0.844-1.078 1.641-2.086 2.367-2.812 0.914-0.914 1.172-2.32 1.453-3.68 0.258-1.383 0.539-2.836 1.547-3.82 0.281-0.281 0.656-0.445 1.055-0.445 5.25 0 5.25 4.195 5.25 6 0 1.922-0.68 3.281-1.313 4.5-0.258 0.516-0.492 0.75-0.68 1.5h6.492c2.438 0 4.5 2.063 4.5 4.5z"></path>
</svg>
